<svg width="39" height="39" viewBox="0 0 39 39" fill="none" xmlns="http://www.w3.org/2000/svg">
<g clip-path="url(#clip0)">
<path d="M38.1879 10.5741C37.9671 9.78637 37.5369 9.07318 36.9431 8.51037C36.3326 7.93025 35.5843 7.51528 34.7689 7.30462C31.7171 6.50025 19.4906 6.50025 19.4906 6.50025C14.3936 6.44225 9.29772 6.69732 4.23189 7.264C3.41645 7.49022 2.66956 7.91446 2.05764 8.499C1.45639 9.0775 1.02089 9.79087 0.793393 10.5725C0.246894 13.5166 -0.0186329 16.5059 0.000392571 19.5002C-0.0191074 22.4919 0.245768 25.4802 0.793393 28.428C1.01602 29.2064 1.44989 29.9165 2.05277 30.4901C2.65564 31.0637 3.40639 31.4781 4.23189 31.6975C7.32427 32.5002 19.4906 32.5002 19.4906 32.5002C24.5942 32.5583 29.6966 32.3033 34.7689 31.7365C35.5843 31.5258 36.3326 31.1109 36.9431 30.5307C37.5444 29.9571 37.9718 29.2437 38.1863 28.467C38.747 25.524 39.0197 22.5335 39.0004 19.5376C39.0426 16.5291 38.7703 13.5244 38.1879 10.5725V10.5741ZM15.6036 25.0642V13.9379L25.7761 19.5019L15.6036 25.0642Z" fill="white"/>
</g>
<defs>
<clipPath id="clip0">
<rect width="39" height="39" fill="white"/>
</clipPath>
</defs>
</svg>
