<svg width="32" height="32" viewBox="0 0 32 32" fill="none" xmlns="http://www.w3.org/2000/svg">
<g clip-path="url(#clip0)">
<path d="M5.94729 5.60963C6.93729 6.41663 7.31229 6.35963 9.18129 6.23463L26.8013 5.17763C27.1763 5.17763 26.8643 4.80263 26.7383 4.73963L23.8113 2.62463C23.2543 2.18663 22.5043 1.69263 21.0713 1.81163L4.01429 3.06163C3.38929 3.11863 3.26429 3.43163 3.51429 3.68163L5.94729 5.60963ZM7.00429 9.71963V28.2556C7.00429 29.2506 7.49929 29.6256 8.61929 29.5626L27.9843 28.4426C29.1043 28.3796 29.2343 27.6976 29.2343 26.8856V8.47463C29.2343 7.66163 28.9213 7.22963 28.2343 7.29263L8.00029 8.47463C7.25029 8.53763 7.00529 8.90663 7.00529 9.71463L7.00429 9.71963ZM26.1193 10.7086C26.2443 11.2716 26.1193 11.8286 25.5563 11.8966L24.6243 12.0846V25.7666C23.8113 26.2046 23.0673 26.4546 22.4473 26.4546C21.4473 26.4546 21.1973 26.1416 20.4523 25.2096L14.3483 15.6266V24.8976L16.2803 25.3356C16.2803 25.3356 16.2803 26.4556 14.7233 26.4556L10.4263 26.7056C10.3013 26.4556 10.4263 25.8306 10.8643 25.7106L11.9843 25.3976V13.1426L10.4273 13.0176C10.3023 12.4546 10.6153 11.6476 11.4843 11.5856L16.0933 11.2726L22.4473 20.9806V12.3916L20.8273 12.2036C20.7023 11.5216 21.1973 11.0216 21.8223 10.9636L26.1193 10.7086ZM2.58229 1.38063L20.3273 0.0736276C22.5043 -0.114372 23.0673 0.0106276 24.4363 1.00563L30.1033 4.98963C31.0353 5.67163 31.3483 5.85963 31.3483 6.60463V28.4436C31.3483 29.8136 30.8483 30.6206 29.1083 30.7456L8.49329 31.9906C7.19129 32.0536 6.56629 31.8656 5.87829 30.9956L1.70629 25.5786C0.961292 24.5836 0.649292 23.8386 0.649292 22.9696V3.55863C0.649292 2.43863 1.14929 1.50663 2.58129 1.38163L2.58229 1.38063Z" fill="white"/>
</g>
<defs>
<clipPath id="clip0">
<rect width="32" height="32" fill="white"/>
</clipPath>
</defs>
</svg>
