<svg width="34" height="34" viewBox="0 0 34 34" fill="none" xmlns="http://www.w3.org/2000/svg">
<g clip-path="url(#clip0_435:286)">
<path d="M7.55592 18.3267L22.6863 33.4568C23.0363 33.8071 23.5034 34 24.0016 34C24.4997 34 24.9668 33.8071 25.3168 33.4568L26.431 32.3429C27.1561 31.617 27.1561 30.4372 26.431 29.7124L13.7256 17.0071L26.4451 4.28756C26.7951 3.93734 26.9883 3.47046 26.9883 2.97263C26.9883 2.47425 26.7951 2.00737 26.4451 1.65687L25.3309 0.543171C24.9806 0.192947 24.5138 3.59837e-06 24.0157 3.55482e-06C23.5175 3.51128e-06 23.0504 0.192947 22.7004 0.543171L7.55592 15.6871C7.20514 16.0385 7.01248 16.5076 7.01358 17.0062C7.01248 17.5068 7.20514 17.9756 7.55592 18.3267Z" fill="black"/>
</g>
<defs>
<clipPath id="clip0_435:286">
<rect width="34" height="34" fill="white" transform="translate(34 34) rotate(-180)"/>
</clipPath>
</defs>
</svg>
