<svg width="34" height="34" viewBox="0 0 34 34" fill="none" xmlns="http://www.w3.org/2000/svg">
<g clip-path="url(#clip0_435:28)">
<path d="M18.3267 26.4455L33.4568 11.3151C33.8071 10.9652 34 10.498 34 9.99991C34 9.5018 33.8071 9.03465 33.4568 8.6847L32.3429 7.57045C31.617 6.8454 30.4372 6.8454 29.7124 7.57045L17.0071 20.2758L4.28756 7.55635C3.93734 7.2064 3.47046 7.01318 2.97263 7.01318C2.47425 7.01318 2.00737 7.2064 1.65687 7.55635L0.543171 8.6706C0.192947 9.02082 3.70653e-06 9.4877 3.68476e-06 9.98581C3.66299e-06 10.4839 0.192947 10.9511 0.543171 11.301L15.6871 26.4455C16.0385 26.7963 16.5076 26.989 17.0062 26.9879C17.5068 26.989 17.9756 26.7963 18.3267 26.4455Z" fill="white"/>
</g>
<defs>
<clipPath id="clip0_435:28">
<rect width="34" height="34" fill="white" transform="translate(34) rotate(90)"/>
</clipPath>
</defs>
</svg>
