<svg width="25" height="25" viewBox="0 0 25 25" fill="none" xmlns="http://www.w3.org/2000/svg">
<path d="M24.144 0.000329881C24.0382 0.0036741 23.934 0.0245754 23.8365 0.0672141L0.916491 9.92345C0.820657 9.96442 0.732324 10.0229 0.657324 10.0965C0.235657 10.5196 0.0414904 11.0337 0.00482371 11.5905C-0.0126763 11.8698 0.0114904 12.1699 0.177324 12.4851C0.343157 12.8003 0.715657 13.0929 1.10649 13.1581L9.37149 14.536C11.7782 12.3229 16.8032 8.15436 16.8032 8.15436C16.8032 8.15436 12.3823 12.9374 10.4715 15.4523L11.8832 23.97C11.9115 24.1414 11.9948 24.2994 12.1157 24.4206C12.8857 25.1931 14.1557 25.1931 14.9265 24.4206C15.0023 24.3462 15.0632 24.2593 15.1057 24.1606L24.9307 1.16579C25.1723 0.605633 24.7515 -0.0163912 24.144 0.000329881V0.000329881Z" fill="black"/>
</svg>
