<svg width="34" height="34" viewBox="0 0 34 34" fill="none" xmlns="http://www.w3.org/2000/svg">
<path d="M26.4441 15.6733L11.3137 0.543166C10.9637 0.192942 10.4966 0 9.99844 0C9.50033 0 9.03318 0.192942 8.68323 0.543166L7.56898 1.65714C6.84393 2.38302 6.84393 3.56278 7.56898 4.28756L20.2744 16.9929L7.55489 29.7124C7.20494 30.0627 7.01172 30.5295 7.01172 31.0274C7.01172 31.5258 7.20494 31.9926 7.55489 32.3431L8.66914 33.4568C9.01936 33.8071 9.48624 34 9.98435 34C10.4825 34 10.9496 33.8071 11.2996 33.4568L26.4441 18.3129C26.7949 17.9615 26.9875 17.4924 26.9864 16.9938C26.9875 16.4932 26.7949 16.0244 26.4441 15.6733Z" fill="white"/>
</svg>
