<svg width="152" height="61" viewBox="0 0 152 61" fill="none" xmlns="http://www.w3.org/2000/svg">
<g filter="url(#filter0_d_1085_525)">
<path d="M37.7965 3.698C38.2432 2.98333 38.8909 2.492 39.7395 2.224C40.5882 1.956 41.6379 1.822 42.8885 1.822C44.1839 1.822 45.2112 1.93366 45.9705 2.157C46.7299 2.38033 47.3105 2.64833 47.7125 2.961C48.1145 3.27366 48.4049 3.74266 48.5835 4.368C48.8515 5.12733 48.9855 6.28866 48.9855 7.852V28.086C48.9855 33.982 47.1542 39.342 43.4915 44.166C41.7049 46.444 39.4045 48.2977 36.5905 49.727C33.7765 51.1117 30.6499 51.804 27.2105 51.804C23.8159 51.804 20.7115 51.0893 17.8975 49.66C15.1282 48.2307 12.8725 46.3547 11.1305 44.032C7.51254 39.2973 5.70354 33.9373 5.70354 27.952V7.785C5.70354 6.713 5.72587 5.93133 5.77054 5.44C5.85987 4.904 6.0832 4.301 6.44054 3.631C6.79787 2.961 7.40087 2.492 8.24954 2.224C9.0982 1.956 10.2372 1.822 11.6665 1.822C13.0959 1.822 14.2349 1.956 15.0835 2.224C15.9322 2.492 16.5129 2.961 16.8255 3.631C17.3615 4.65833 17.6295 6.06533 17.6295 7.852V27.952C17.6295 30.6767 18.2995 33.2673 19.6395 35.724C20.3095 36.9747 21.3145 37.9797 22.6545 38.739C23.9945 39.4983 25.5802 39.878 27.4115 39.878C30.6722 39.878 33.1065 38.672 34.7145 36.26C36.3225 33.848 37.1265 31.0563 37.1265 27.885V7.383C37.1265 5.641 37.3499 4.41266 37.7965 3.698ZM88.3538 38.136L89.5598 37.265C91.0785 36.3717 92.1505 35.925 92.7758 35.925C94.1605 35.925 95.6568 37.1757 97.2648 39.677C98.2475 41.2403 98.7388 42.491 98.7388 43.429C98.7388 44.367 98.4261 45.1487 97.8008 45.774C97.2201 46.3993 96.5278 46.9577 95.7238 47.449C94.9198 47.9403 94.1381 48.4093 93.3788 48.856C92.6641 49.3027 91.1678 49.8833 88.8898 50.598C86.6118 51.3127 84.4008 51.67 82.2568 51.67C80.1575 51.67 78.0135 51.402 75.8248 50.866C73.6808 50.2853 71.4475 49.3473 69.1248 48.052C66.8468 46.712 64.7921 45.104 62.9608 43.228C61.1295 41.3073 59.6108 38.873 58.4048 35.925C57.2435 32.9323 56.6628 29.694 56.6628 26.21C56.6628 22.726 57.2435 19.577 58.4048 16.763C59.5661 13.9043 61.0401 11.5593 62.8268 9.728C64.6581 7.852 66.7351 6.28866 69.0578 5.038C73.4351 2.626 77.8348 1.42 82.2568 1.42C84.3561 1.42 86.4778 1.755 88.6218 2.425C90.8105 3.05033 92.4631 3.698 93.5798 4.368L95.1878 5.306C95.9918 5.79733 96.6171 6.19933 97.0638 6.512C98.2251 7.45 98.8058 8.522 98.8058 9.728C98.8058 10.8893 98.3368 12.1177 97.3988 13.413C95.6568 15.825 94.0935 17.031 92.7088 17.031C91.9048 17.031 90.7658 16.5397 89.2918 15.557C87.4158 14.0383 84.9145 13.279 81.7878 13.279C78.8845 13.279 76.0258 14.284 73.2118 16.294C71.8718 17.2767 70.7551 18.6613 69.8618 20.448C68.9685 22.2347 68.5218 24.267 68.5218 26.545C68.5218 28.7783 68.9685 30.7883 69.8618 32.575C70.7551 34.3617 71.8941 35.7687 73.2788 36.796C76.0035 38.7613 78.8398 39.744 81.7878 39.744C83.1725 39.744 84.4678 39.5653 85.6738 39.208C86.9245 38.8507 87.8178 38.4933 88.3538 38.136ZM135.869 38.136L137.075 37.265C138.593 36.3717 139.665 35.925 140.291 35.925C141.675 35.925 143.172 37.1757 144.78 39.677C145.763 41.2403 146.254 42.491 146.254 43.429C146.254 44.367 145.941 45.1487 145.316 45.774C144.735 46.3993 144.043 46.9577 143.239 47.449C142.435 47.9403 141.653 48.4093 140.894 48.856C140.179 49.3027 138.683 49.8833 136.405 50.598C134.127 51.3127 131.916 51.67 129.772 51.67C127.672 51.67 125.528 51.402 123.34 50.866C121.196 50.2853 118.962 49.3473 116.64 48.052C114.362 46.712 112.307 45.104 110.476 43.228C108.644 41.3073 107.126 38.873 105.92 35.925C104.758 32.9323 104.178 29.694 104.178 26.21C104.178 22.726 104.758 19.577 105.92 16.763C107.081 13.9043 108.555 11.5593 110.342 9.728C112.173 7.852 114.25 6.28866 116.573 5.038C120.95 2.626 125.35 1.42 129.772 1.42C131.871 1.42 133.993 1.755 136.137 2.425C138.325 3.05033 139.978 3.698 141.095 4.368L142.703 5.306C143.507 5.79733 144.132 6.19933 144.579 6.512C145.74 7.45 146.321 8.522 146.321 9.728C146.321 10.8893 145.852 12.1177 144.914 13.413C143.172 15.825 141.608 17.031 140.224 17.031C139.42 17.031 138.281 16.5397 136.807 15.557C134.931 14.0383 132.429 13.279 129.303 13.279C126.399 13.279 123.541 14.284 120.727 16.294C119.387 17.2767 118.27 18.6613 117.377 20.448C116.483 22.2347 116.037 24.267 116.037 26.545C116.037 28.7783 116.483 30.7883 117.377 32.575C118.27 34.3617 119.409 35.7687 120.794 36.796C123.518 38.7613 126.355 39.744 129.303 39.744C130.687 39.744 131.983 39.5653 133.189 39.208C134.439 38.8507 135.333 38.4933 135.869 38.136Z" fill="url(#paint0_linear_1085_525)"/>
</g>
<defs>
<filter id="filter0_d_1085_525" x="0.703537" y="0.419922" width="150.617" height="60.3848" filterUnits="userSpaceOnUse" color-interpolation-filters="sRGB">
<feFlood flood-opacity="0" result="BackgroundImageFix"/>
<feColorMatrix in="SourceAlpha" type="matrix" values="0 0 0 0 0 0 0 0 0 0 0 0 0 0 0 0 0 0 127 0" result="hardAlpha"/>
<feOffset dy="4"/>
<feGaussianBlur stdDeviation="2.5"/>
<feComposite in2="hardAlpha" operator="out"/>
<feColorMatrix type="matrix" values="0 0 0 0 0 0 0 0 0 0 0 0 0 0 0 0 0 0 0.05 0"/>
<feBlend mode="normal" in2="BackgroundImageFix" result="effect1_dropShadow_1085_525"/>
<feBlend mode="normal" in="SourceGraphic" in2="effect1_dropShadow_1085_525" result="shape"/>
</filter>
<linearGradient id="paint0_linear_1085_525" x1="75.5" y1="-1.43103" x2="75.5" y2="53.9655" gradientUnits="userSpaceOnUse">
<stop offset="0.156382" stop-color="#91F4F3"/>
<stop offset="0.552083" stop-color="#719EFC"/>
<stop offset="0.885417" stop-color="#8E54E6"/>
</linearGradient>
</defs>
</svg>
